<svg width="127" height="38" viewBox="0 0 127 38" fill="none" xmlns="http://www.w3.org/2000/svg">
<path d="M33.4542 32.2752C32.158 32.2752 31.0749 31.9793 30.2049 31.3874C29.3349 30.7897 28.7223 29.9551 28.3672 28.8839C28.018 27.8067 27.9588 26.5549 28.1896 25.1286C28.4145 23.7318 28.8673 22.5125 29.5479 21.4709C30.2345 20.4292 31.0927 19.6213 32.1225 19.0472C33.1583 18.4731 34.3094 18.1861 35.576 18.1861C36.8722 18.1861 37.9523 18.485 38.8164 19.0827C39.6864 19.6805 40.299 20.518 40.6541 21.5952C41.0092 22.6723 41.0714 23.9271 40.8406 25.3594C40.6156 26.7443 40.157 27.9576 39.4645 28.9993C38.7779 30.035 37.9197 30.84 36.8899 31.4141C35.8601 31.9882 34.7148 32.2752 33.4542 32.2752ZM33.6051 30.0469C34.4574 30.0469 35.2002 29.822 35.8335 29.3722C36.4727 28.9223 36.9935 28.3246 37.396 27.5788C37.7984 26.8331 38.0736 26.0163 38.2216 25.1286C38.3577 24.2704 38.3548 23.4862 38.2127 22.7759C38.0766 22.0598 37.7807 21.4857 37.3249 21.0536C36.8692 20.6216 36.2359 20.4055 35.4251 20.4055C34.5728 20.4055 33.8241 20.6334 33.179 21.0891C32.5398 21.5389 32.0189 22.1397 31.6165 22.8913C31.2199 23.643 30.9506 24.4627 30.8086 25.3505C30.6725 26.2028 30.6725 26.987 30.8086 27.7031C30.9447 28.4134 31.2406 28.9815 31.6964 29.4077C32.1521 29.8338 32.7884 30.0469 33.6051 30.0469ZM37.4048 13.6939L40.5121 16.7745H37.902L36.2241 15.0167L33.9425 16.7745H31.3324L35.4162 13.6939H37.4048ZM31.3146 11.5455L32.6108 14.8036H30.6932L28.598 11.5455H31.3146ZM46.7066 23.9034L45.3749 32H42.7204L44.9932 18.3636H47.5411L47.1682 20.5831H47.3369C47.769 19.8551 48.3579 19.2751 49.1036 18.843C49.8553 18.4051 50.743 18.1861 51.767 18.1861C52.6903 18.1861 53.4656 18.3814 54.093 18.772C54.7262 19.1567 55.1731 19.7308 55.4335 20.4943C55.6998 21.2578 55.7413 22.2018 55.5578 23.3263L54.1018 32H51.4474L52.8412 23.646C53.001 22.6576 52.8708 21.8852 52.4506 21.3288C52.0363 20.7666 51.3763 20.4854 50.4708 20.4854C49.8553 20.4854 49.2841 20.6186 48.7574 20.8849C48.2365 21.1513 47.7956 21.5419 47.4346 22.0568C47.0795 22.5658 46.8368 23.1813 46.7066 23.9034ZM62.518 37.3977C61.429 37.3977 60.5175 37.2557 59.7836 36.9716C59.0557 36.6875 58.4816 36.3117 58.0613 35.8441C57.647 35.3765 57.36 34.8646 57.2002 34.3082L59.6505 33.3672C59.7689 33.6276 59.9346 33.9028 60.1476 34.1928C60.3607 34.4888 60.6773 34.7403 61.0976 34.9474C61.5237 35.1546 62.1067 35.2582 62.8465 35.2582C63.8527 35.2582 64.7316 35.0125 65.4832 34.5213C66.2349 34.036 66.6995 33.2607 66.877 32.1953L67.2943 29.5142H67.1256C66.9244 29.8042 66.6462 30.1268 66.2911 30.4819C65.936 30.837 65.4773 31.1448 64.915 31.4052C64.3528 31.6656 63.6544 31.7958 62.8199 31.7958C61.7427 31.7958 60.8135 31.5443 60.0322 31.0412C59.2569 30.5322 58.7006 29.7835 58.3632 28.7951C58.0258 27.8008 57.9785 26.5786 58.2211 25.1286C58.4579 23.6785 58.9077 22.4356 59.5706 21.3999C60.2394 20.3641 61.0502 19.571 62.0031 19.0206C62.9619 18.4643 63.9888 18.1861 65.0837 18.1861C65.9301 18.1861 66.59 18.3281 67.0635 18.6122C67.5429 18.8904 67.898 19.2159 68.1288 19.5888C68.3596 19.9616 68.5283 20.2901 68.6349 20.5742H68.8302L69.1942 18.3636H71.7954L69.4871 32.3018C69.2977 33.4737 68.8686 34.4355 68.1998 35.1871C67.537 35.9388 66.7113 36.4951 65.7229 36.8562C64.7404 37.2172 63.6721 37.3977 62.518 37.3977ZM63.7254 29.5941C64.483 29.5941 65.1577 29.4165 65.7496 29.0614C66.3473 28.7004 66.8445 28.1855 67.241 27.5167C67.6376 26.842 67.9128 26.0341 68.0667 25.093C68.2206 24.1757 68.2117 23.3678 68.04 22.6694C67.8743 21.971 67.5518 21.4265 67.0724 21.0359C66.5989 20.6393 65.9804 20.4411 65.2169 20.4411C64.412 20.4411 63.7136 20.6482 63.1217 21.0625C62.5299 21.4709 62.0475 22.0272 61.6746 22.7315C61.3077 23.4358 61.0502 24.223 60.9023 25.093C60.7602 25.9867 60.7632 26.771 60.9111 27.4457C61.065 28.1204 61.3728 28.6471 61.8344 29.0259C62.2961 29.4047 62.9264 29.5941 63.7254 29.5941ZM81.4478 32H78.5359L88.0973 13.8182H91.2667L94.7912 32H91.8793L89.2248 17.1207H89.0827L81.4478 32ZM83.1168 24.88H92.5629L92.1722 27.1882H82.7262L83.1168 24.88ZM91.7905 12.1847L90.3612 9.8054L88.1417 12.1847H85.7447L85.7624 12.0515L89.4911 8.28729H91.7106L94.2141 12.0515L94.1964 12.1847H91.7905ZM101.199 23.9034L99.8671 32H97.2126L99.4854 18.3636H102.033L101.66 20.5831H101.829C102.261 19.8551 102.85 19.2751 103.596 18.843C104.347 18.4051 105.235 18.1861 106.259 18.1861C107.182 18.1861 107.958 18.3814 108.585 18.772C109.218 19.1567 109.665 19.7308 109.926 20.4943C110.192 21.2578 110.233 22.2018 110.05 23.3263L108.594 32H105.94L107.333 23.646C107.493 22.6576 107.363 21.8852 106.943 21.3288C106.528 20.7666 105.869 20.4854 104.963 20.4854C104.347 20.4854 103.776 20.6186 103.25 20.8849C102.729 21.1513 102.288 21.5419 101.927 22.0568C101.572 22.5658 101.329 23.1813 101.199 23.9034Z" fill="#656565"/>
<path d="M4.095 10.895C4.305 9.68167 4.9 8.76 5.88 8.13C6.86 7.5 8.20167 7.185 9.905 7.185L8.085 17.44H17.885L19.04 10.895C19.25 9.68167 19.845 8.76 20.825 8.13C21.8283 7.5 23.17 7.185 24.85 7.185L21.07 28.605C20.86 29.8183 20.2533 30.74 19.25 31.37C18.27 32 16.94 32.315 15.26 32.315L17.115 21.885H7.315L6.125 28.605C5.915 29.8183 5.30833 30.74 4.305 31.37C3.325 32 1.995 32.315 0.315 32.315L4.095 10.895Z" fill="black"/>
</svg>
