<svg width="43" height="40" viewBox="0 0 43 40" fill="none" xmlns="http://www.w3.org/2000/svg">
<rect width="40" height="40" rx="20" fill="#B70000"/>
<path d="M10 12.487C10 12.0136 10.3838 11.6299 10.8571 11.6299H11.4952C12.5814 11.6299 13.2318 12.3602 13.6037 13.039C13.8516 13.4915 14.031 14.0164 14.1712 14.4915C14.2092 14.4886 14.2477 14.487 14.2866 14.487H28.5692C29.518 14.487 30.2032 15.3949 29.943 16.3074L27.8542 23.6321C27.4692 24.9821 26.2357 25.9131 24.8319 25.9131H18.034C16.6186 25.9131 15.3778 24.9669 15.0032 23.602L14.1341 20.4351L12.6957 15.5793L12.6934 15.5708C12.5154 14.9219 12.3484 14.3157 12.1003 13.8627C11.8593 13.4228 11.6672 13.3442 11.4952 13.3442H10.8571C10.3838 13.3442 10 12.9604 10 12.487ZM17.4286 31.6299C18.6909 31.6299 19.7143 30.6066 19.7143 29.3442C19.7143 28.0818 18.6909 27.0585 17.4286 27.0585C16.1662 27.0585 15.1429 28.0818 15.1429 29.3442C15.1429 30.6066 16.1662 31.6299 17.4286 31.6299ZM25.4286 31.6299C26.6909 31.6299 27.7143 30.6066 27.7143 29.3442C27.7143 28.0818 26.6909 27.0585 25.4286 27.0585C24.1662 27.0585 23.1429 28.0818 23.1429 29.3442C23.1429 30.6066 24.1662 31.6299 25.4286 31.6299Z" fill="white"/>
</svg>
