<svg width="20" height="21" viewBox="0 0 20 21" fill="none" xmlns="http://www.w3.org/2000/svg">
<path d="M0 1.48703C0 1.01364 0.383756 0.629883 0.857143 0.629883H1.49516C2.58141 0.629883 3.2318 1.36016 3.60371 2.03902C3.85162 2.49153 4.03095 3.01637 4.17123 3.49154C4.20922 3.48855 4.2477 3.48702 4.28663 3.48702H18.5692C19.518 3.48702 20.2032 4.39493 19.943 5.30736L17.8542 12.6321C17.4692 13.9821 16.2357 14.9131 14.8319 14.9131H8.03402C6.61861 14.9131 5.37783 13.9669 5.00323 12.602L4.1341 9.43508L2.6957 4.57934L2.69337 4.57084C2.51542 3.92189 2.34842 3.31565 2.10026 2.86268C1.85927 2.4228 1.66716 2.34417 1.49516 2.34417H0.857143C0.383756 2.34417 0 1.96041 0 1.48703ZM7.42857 20.6299C8.69094 20.6299 9.71429 19.6066 9.71429 18.3442C9.71429 17.0818 8.69094 16.0585 7.42857 16.0585C6.16621 16.0585 5.14286 17.0818 5.14286 18.3442C5.14286 19.6066 6.16621 20.6299 7.42857 20.6299ZM15.4286 20.6299C16.6909 20.6299 17.7143 19.6066 17.7143 18.3442C17.7143 17.0818 16.6909 16.0585 15.4286 16.0585C14.1662 16.0585 13.1429 17.0818 13.1429 18.3442C13.1429 19.6066 14.1662 20.6299 15.4286 20.6299Z" fill="white"/>
</svg>
