<svg width="16" height="16" viewBox="0 0 16 16" fill="none" xmlns="http://www.w3.org/2000/svg">
<g clip-path="url(#clip0_128_6706)">
<path d="M8.00028 1.77783C5.75584 1.77783 3.95862 2.80005 2.65028 4.01672C1.35028 5.22228 0.480838 6.66672 0.0697266 7.65839C-0.0219401 7.87783 -0.0219401 8.12228 0.0697266 8.34172C0.480838 9.33339 1.35028 10.7778 2.65028 11.9834C3.95862 13.2001 5.75584 14.2223 8.00028 14.2223C10.2447 14.2223 12.0419 13.2001 13.3503 11.9834C14.6503 10.7751 15.5197 9.33339 15.9336 8.34172C16.0253 8.12228 16.0253 7.87783 15.9336 7.65839C15.5197 6.66672 14.6503 5.22228 13.3503 4.01672C12.0419 2.80005 10.2447 1.77783 8.00028 1.77783ZM4.00028 8.00005C4.00028 6.93919 4.42171 5.92177 5.17185 5.17163C5.922 4.42148 6.93942 4.00005 8.00028 4.00005C9.06115 4.00005 10.0786 4.42148 10.8287 5.17163C11.5789 5.92177 12.0003 6.93919 12.0003 8.00005C12.0003 9.06092 11.5789 10.0783 10.8287 10.8285C10.0786 11.5786 9.06115 12.0001 8.00028 12.0001C6.93942 12.0001 5.922 11.5786 5.17185 10.8285C4.42171 10.0783 4.00028 9.06092 4.00028 8.00005ZM8.00028 6.22228C8.00028 7.20283 7.20306 8.00005 6.2225 8.00005C6.02528 8.00005 5.83639 7.96672 5.65862 7.90839C5.50584 7.85839 5.32806 7.95283 5.33362 8.11394C5.34195 8.30561 5.36973 8.49728 5.4225 8.68894C5.80306 10.1112 7.26695 10.9556 8.68917 10.5751C10.1114 10.1945 10.9558 8.73061 10.5753 7.30839C10.2669 6.15561 9.24751 5.38061 8.11417 5.33339C7.95306 5.32783 7.85862 5.50283 7.90862 5.65839C7.96695 5.83617 8.00028 6.02505 8.00028 6.22228Z" fill="black"/>
</g>
<defs>
<clipPath id="clip0_128_6706">
<rect width="16" height="16" fill="white"/>
</clipPath>
</defs>
</svg>
