<svg width="16" height="12" viewBox="0 0 16 12" fill="none" xmlns="http://www.w3.org/2000/svg">
<path d="M1.47221 0.65252C1.54721 0.50002 1.71221 0.41252 1.87971 0.43502L7.99971 1.20002L14.1197 0.43502C14.2872 0.41502 14.4522 0.50252 14.5272 0.65252L15.5697 2.73752C15.7947 3.18502 15.5547 3.72752 15.0747 3.86502L10.9897 5.03252C10.6422 5.13252 10.2697 4.98502 10.0847 4.67502L7.99971 1.20002L5.91471 4.67502C5.72971 4.98502 5.35721 5.13252 5.00971 5.03252L0.927209 3.86502C0.444709 3.72752 0.207209 3.18502 0.432209 2.73752L1.47221 0.65252ZM8.02721 2.80002L9.39971 5.08502C9.77221 5.70502 10.5147 6.00002 11.2122 5.80002L14.3997 4.89002V9.06502C14.3997 9.61502 14.0247 10.095 13.4897 10.23L8.38721 11.505C8.13221 11.57 7.86471 11.57 7.61221 11.505L2.50971 10.23C1.97471 10.0925 1.59971 9.61252 1.59971 9.06252V4.88752L4.78971 5.80002C5.48471 6.00002 6.22971 5.70502 6.60221 5.08502L7.97221 2.80002H8.02721Z" fill="black"/>
</svg>
