<svg width="12" height="14" viewBox="0 0 12 14" fill="none" xmlns="http://www.w3.org/2000/svg">
<path d="M6 6.99997C6.90931 6.99997 7.78138 6.63874 8.42437 5.99576C9.06735 5.35278 9.42857 4.48071 9.42857 3.57139C9.42857 2.66208 9.06735 1.79001 8.42437 1.14703C7.78138 0.504046 6.90931 0.142822 6 0.142822C5.09069 0.142822 4.21862 0.504046 3.57563 1.14703C2.93265 1.79001 2.57143 2.66208 2.57143 3.57139C2.57143 4.48071 2.93265 5.35278 3.57563 5.99576C4.21862 6.63874 5.09069 6.99997 6 6.99997ZM4.77589 8.28568C2.1375 8.28568 0 10.4232 0 13.0616C0 13.5009 0.35625 13.8571 0.795536 13.8571H11.2045C11.6438 13.8571 12 13.5009 12 13.0616C12 10.4232 9.8625 8.28568 7.22411 8.28568H4.77589Z" fill="black"/>
</svg>
