<svg width="16" height="12" viewBox="0 0 16 12" fill="none" xmlns="http://www.w3.org/2000/svg">
<path d="M1.77778 0.666626C0.797222 0.666626 0 1.46385 0 2.4444V4.22218C0 4.46663 0.205556 4.65829 0.436111 4.73885C0.958333 4.9194 1.33333 5.41663 1.33333 5.99996C1.33333 6.58329 0.958333 7.08052 0.436111 7.26107C0.205556 7.34163 0 7.53329 0 7.77774V9.55552C0 10.5361 0.797222 11.3333 1.77778 11.3333H14.2222C15.2028 11.3333 16 10.5361 16 9.55552V7.77774C16 7.53329 15.7944 7.34163 15.5639 7.26107C15.0417 7.08052 14.6667 6.58329 14.6667 5.99996C14.6667 5.41663 15.0417 4.9194 15.5639 4.73885C15.7944 4.65829 16 4.46663 16 4.22218V2.4444C16 1.46385 15.2028 0.666626 14.2222 0.666626H1.77778ZM3.55556 3.77774V8.22218C3.55556 8.46663 3.75556 8.66663 4 8.66663H12C12.2444 8.66663 12.4444 8.46663 12.4444 8.22218V3.77774C12.4444 3.53329 12.2444 3.33329 12 3.33329H4C3.75556 3.33329 3.55556 3.53329 3.55556 3.77774ZM2.66667 3.33329C2.66667 2.84163 3.06389 2.4444 3.55556 2.4444H12.4444C12.9361 2.4444 13.3333 2.84163 13.3333 3.33329V8.66663C13.3333 9.15829 12.9361 9.55552 12.4444 9.55552H3.55556C3.06389 9.55552 2.66667 9.15829 2.66667 8.66663V3.33329Z" fill="black"/>
</svg>
